#!OML:ASF F:\VICON\USERDATA\INSTALL\rory3\rory3.ASF
:FULLY-SPECIFIED
:DEGREES
562
root 4.83201 16.1777 -8.47726 25.0607 -42.8868 -4.30134
lowerback -6.47462 -1.59394 -4.55794
upperback -13.6341 -2.3509 2.72836
thorax -10.7466 -0.680891 5.59388
lowerneck -2.81865 7.87701 5.124
upperneck 22.6353 8.22069 9.06484
head 7.26627 5.01243 2.66527
rclavicle -4.02042e-014 -2.23633e-014
rhumerus -40.657 -14.3201 2.52958
rradius 59.307
rwrist -16.9112
rhand -31.0735 36.5205
rfingers 7.12502
rthumb -4.35409 6.5853
lclavicle -4.02042e-014 -2.23633e-014
lhumerus 46.6408 -46.5979 -26.8405
lradius 72.3255
lwrist 23.5588
lhand 35.0663 19.2386
lfingers 7.12502
lthumb 58.195 34.7838
rfemur 156.244 -188.883 -147.546
rtibia 32.5896
rfoot -51.5975 -32.9424
rtoes 27.1259
lfemur -92.0456 26.4783 -47.145
ltibia 61.3338
lfoot 33.0789 34.5098
ltoes 9.09054
563
root 4.82752 16.1785 -8.4912 24.9213 -42.9817 -4.08728
lowerback -6.1569 -1.50417 -5.05375
upperback -13.7351 -2.2629 2.54511
thorax -11.0689 -0.581404 5.69035
lowerneck -3.10976 7.96704 5.51325
upperneck 21.211 8.31671 9.52916
head 6.85115 5.09607 2.71451
rclavicle 5.27773e-014 1.70955e-014
rhumerus -41.5693 -14.7438 2.46199
rradius 56.9308
rwrist -16.3274
rhand -30.0422 38.4762
rfingers 7.12502
rthumb -3.35821 8.52295
lclavicle 5.27773e-014 1.70955e-014
lhumerus 47.7368 -43.5318 -27.4728
lradius 70.1204
lwrist 22.3448
lhand 34.286 17.1772
lfingers 7.12502
lthumb 57.5135 33.3272
rfemur 156.264 -189.699 -147.735
rtibia 32.4296
rfoot -52.1745 -33.3385
rtoes 27.8045
lfemur -92.2416 26.584 -47.3962
ltibia 61.2306
lfoot 34.0494 34.671
ltoes 9.06615
564
root 4.81908 16.1887 -8.47795 25.2148 -43.0623 -4.25766
lowerback -6.36786 -1.38526 -4.91685
upperback -13.929 -2.11364 2.44053
thorax -11.1999 -0.524207 5.49598
lowerneck -2.86332 8.09413 5.3969
upperneck 19.555 8.54437 10.2668
head 6.2257 5.19721 2.8958
rclavicle 4.56459e-014 5.1684e-015
rhumerus -42.0519 -14.5609 2.38838
rradius 54.6605
rwrist -15.6584
rhand -29.351 39.5631
rfingers 7.12502
rthumb -2.69068 9.60035
lclavicle 4.56459e-014 5.1684e-015
lhumerus 48.4169 -40.7642 -27.6465
lradius 68.0281
lwrist 21.3515
lhand 32.5181 19.6362
lfingers 7.12502
lthumb 55.9555 37.0605
rfemur 156.213 -189.508 -147.665
rtibia 32.2922
rfoot -51.8888 -33.064
rtoes 27.8363
lfemur -92.6369 26.7649 -47.5478
ltibia 61.1943
lfoot 34.1902 35.3992
ltoes 10.718
565
root 4.81366 16.192 -8.47391 25.5308 -43.1581 -4.56904
lowerback -6.28026 -1.33621 -4.84799
upperback -14.2093 -2.06236 2.55092
thorax -11.5951 -0.482506 5.59569
lowerneck -2.44495 8.23709 5.15361
upperneck 17.8737 8.87247 10.822
head 5.56731 5.31103 3.03022
rclavicle -6.33129e-014 -5.19822e-014
rhumerus -42.1392 -14.5794 2.46198
rradius 52.2393
rwrist -14.2444
rhand -28.676 39.9722
rfingers 7.12502
rthumb -2.03879 10.0021
lclavicle -6.33129e-014 -5.19822e-014
lhumerus 48.4055 -38.2015 -26.8394
lradius 66.2604
lwrist 19.8972
lhand 31.8902 20.5611
lfingers 7.12502
lthumb 55.3978 38.408
rfemur 156.192 -189.691 -147.483
rtibia 32.2155
rfoot -51.8305 -32.882
rtoes 28.1219
lfemur -93.0223 27.0455 -47.5393
ltibia 61.2059
lfoot 32.9959 37.1843
ltoes 15.14
566
root 4.81139 16.196 -8.46937 25.5663 -43.3753 -4.55865
lowerback -6.10444 -1.33981 -5.09343
upperback -14.4275 -2.08667 2.6461
thorax -11.9604 -0.44469 5.85949
lowerneck -2.18852 8.41422 5.09198
upperneck 16.3073 9.26449 11.0696
head 5.00324 5.44951 3.05544
rclavicle 9.81499e-015 -1.61016e-014
rhumerus -42.4618 -15.9018 2.93169
rradius 49.5693
rwrist -11.4565
rhand -27.783 40.1873
rfingers 7.12502
rthumb -1.17637 10.2108
lclavicle 9.81499e-015 -1.61016e-014
lhumerus 48.0899 -35.5397 -25.7274
lradius 64.4001
lwrist 18.2303
lhand 32.1605 20.6473
lfingers 7.12502
lthumb 55.6381 38.3141
rfemur 156.175 -189.616 -147.52
rtibia 32.1831
rfoot -51.6464 -32.8719
rtoes 28.1537
lfemur -93.3374 27.3657 -47.8276
ltibia 61.2154
lfoot 35.3713 34.8379
ltoes 10.5922
567
root 4.81055 16.2 -8.46665 25.5278 -43.5001 -4.52252
lowerback -5.88216 -1.3256 -5.32373
upperback -14.5751 -2.08966 2.66994
thorax -12.2747 -0.403164 6.03404
lowerneck -2.36497 8.57378 5.04865
upperneck 15.285 9.52942 11.4211
head 4.68592 5.56177 3.14673
rclavicle 5.31501e-014 2.18663e-015
rhumerus -42.751 -16.2249 3.06318
rradius 47.456
rwrist -9.60935
rhand -26.9846 39.9586
rfingers 7.12502
rthumb -0.405219 9.97927
lclavicle 5.31501e-014 2.18663e-015
lhumerus 47.8536 -32.7126 -24.7946
lradius 62.2794
lwrist 16.7886
lhand 31.9118 20.1096
lfingers 7.12502
lthumb 55.417 37.9423
rfemur 156.146 -189.421 -147.542
rtibia 32.248
rfoot -51.3907 -33.1668
rtoes 27.3211
lfemur -93.4422 27.5398 -47.8913
ltibia 61.1501
lfoot 35.3089 36.3838
ltoes 13.9001
